<svg id="battery-storage-system-icon" xmlns="http://www.w3.org/2000/svg" viewBox="0 0 256 256">
  <defs>
    <linearGradient id="bss_rack" x1="52" y1="34" x2="196" y2="220" gradientUnits="userSpaceOnUse">
      <stop offset="0" stop-color="#7b8794"/>
      <stop offset="1" stop-color="#26313d"/>
    </linearGradient>

    <linearGradient id="bss_side" x1="166" y1="40" x2="216" y2="210" gradientUnits="userSpaceOnUse">
      <stop offset="0" stop-color="#4b5563"/>
      <stop offset="1" stop-color="#111827"/>
    </linearGradient>

    <linearGradient id="bss_module" x1="76" y1="58" x2="174" y2="190" gradientUnits="userSpaceOnUse">
      <stop offset="0" stop-color="#c0cad6"/>
      <stop offset="1" stop-color="#7a8796"/>
    </linearGradient>

    <linearGradient id="bss_module_dark" x1="80" y1="66" x2="172" y2="98" gradientUnits="userSpaceOnUse">
      <stop offset="0" stop-color="#64748b"/>
      <stop offset="1" stop-color="#334155"/>
    </linearGradient>

    <linearGradient id="bss_energy" x1="0" y1="0" x2="1" y2="1">
      <stop offset="0" stop-color="#34d399"/>
      <stop offset="1" stop-color="#16a34a"/>
    </linearGradient>

    <linearGradient id="bss_bolt" x1="0" y1="0" x2="0" y2="1">
      <stop offset="0" stop-color="#fde68a"/>
      <stop offset="1" stop-color="#f59e0b"/>
    </linearGradient>

    <filter id="bss_shadow" x="-25%" y="-25%" width="150%" height="150%">
      <feDropShadow dx="0" dy="8" stdDeviation="8" flood-color="#020617" flood-opacity="0.28"/>
    </filter>
  </defs>

  <g filter="url(#bss_shadow)">
    <path d="M58 42 H174 L202 62 V214 H82 L58 194 Z"
          fill="url(#bss_side)"
          stroke="#111827"
          stroke-width="5"
          stroke-linejoin="round"/>

    <rect x="48" y="36" width="132" height="170" rx="18"
          fill="url(#bss_rack)"
          stroke="#111827"
          stroke-width="5"/>

    <rect x="60" y="48" width="108" height="146" rx="12"
          fill="#2f3b49"
          stroke="#64748b"
          stroke-width="3"/>

    <g>
      <rect x="70" y="60" width="88" height="28" rx="7"
            fill="url(#bss_module)"
            stroke="#d1d5db"
            stroke-width="2"/>
      <rect x="77" y="67" width="42" height="14" rx="4"
            fill="url(#bss_module_dark)"/>
      <circle cx="141" cy="74" r="4" fill="#22c55e"/>
      <circle cx="152" cy="74" r="4" fill="#475569"/>

      <rect x="70" y="96" width="88" height="28" rx="7"
            fill="url(#bss_module)"
            stroke="#d1d5db"
            stroke-width="2"/>
      <rect x="77" y="103" width="42" height="14" rx="4"
            fill="url(#bss_module_dark)"/>
      <circle cx="141" cy="110" r="4" fill="#22c55e"/>
      <circle cx="152" cy="110" r="4" fill="#475569"/>

      <rect x="70" y="132" width="88" height="28" rx="7"
            fill="url(#bss_module)"
            stroke="#d1d5db"
            stroke-width="2"/>
      <rect x="77" y="139" width="42" height="14" rx="4"
            fill="url(#bss_module_dark)"/>
      <circle cx="141" cy="146" r="4" fill="#22c55e"/>
      <circle cx="152" cy="146" r="4" fill="#475569"/>

      <rect x="70" y="168" width="88" height="16" rx="6"
            fill="#475569"
            stroke="#94a3b8"
            stroke-width="2"/>
      <rect x="82" y="174" width="64" height="4" rx="2"
            fill="#94a3b8"
            opacity="0.7"/>
    </g>

    <g transform="translate(114 32)">
      <rect x="-30" y="-10" width="60" height="18" rx="7"
            fill="#374151"
            stroke="#111827"
            stroke-width="3"/>
      <circle cx="-17" cy="-1" r="6" fill="#ef4444"/>
      <circle cx="17" cy="-1" r="6" fill="#22c55e"/>
      <path d="M-20 -1 H-14" stroke="#fee2e2" stroke-width="2.5" stroke-linecap="round"/>
      <path d="M14 -1 H20 M17 -4 V2" stroke="#dcfce7" stroke-width="2.5" stroke-linecap="round"/>
    </g>

    <g transform="translate(114 207)">
      <rect x="-50" y="0" width="100" height="12" rx="6"
            fill="#111827"/>
      <rect x="-36" y="-5" width="72" height="10" rx="5"
            fill="#4b5563"/>
    </g>


    <path d="M174 49 L201 67"
          stroke="#6b7280"
          stroke-width="4"
          stroke-linecap="round"
          opacity="0.7"/>

    <path d="M180 204 L202 214"
          stroke="#020617"
          stroke-width="4"
          stroke-linecap="round"
          opacity="0.55"/>
  </g>
</svg>